<?xml version="1.0" encoding="UTF-8"?><!DOCTYPE svg PUBLIC "-//W3C//DTD SVG 1.1//EN" "http://www.w3.org/Graphics/SVG/1.1/DTD/svg11.dtd"><svg xmlns="http://www.w3.org/2000/svg" xmlns:xlink="http://www.w3.org/1999/xlink"><symbol id="icon-clipboard" viewBox="0 0 24 24"><path d="M19 3a2 2 0 012 2v14a2 2 0 01-2 2H5a2 2 0 01-2-2V5a2 2 0 012-2h4.18C9.6 1.84 10.7 1 12 1c1.3 0 2.4.84 2.82 2H19m-7 0a1 1 0 00-1 1 1 1 0 001 1 1 1 0 001-1 1 1 0 00-1-1M7 7V5H5v14h14V5h-2v2H7m5 11l-5-5h3V9h4v4h3l-5 5z"/></symbol><symbol id="icon-cog" viewBox="0 0 24 24"><path d="M12 8a4 4 0 014 4 4 4 0 01-4 4 4 4 0 01-4-4 4 4 0 014-4m0 2a2 2 0 00-2 2 2 2 0 002 2 2 2 0 002-2 2 2 0 00-2-2m-2 12c-.25 0-.46-.18-.5-.42l-.37-2.65c-.63-.25-1.17-.59-1.69-.99l-2.49 1.01c-.22.08-.49 0-.61-.22l-2-3.46a.493.493 0 01.12-.64l2.11-1.66L4.5 12l.07-1-2.11-1.63a.493.493 0 01-.12-.64l2-3.46c.12-.22.39-.31.61-.22l2.49 1c.52-.39 1.06-.73 1.69-.98l.37-2.65c.04-.24.25-.42.5-.42h4c.25 0 .46.18.5.42l.37 2.65c.63.25 1.17.59 1.69.98l2.49-1c.22-.09.49 0 .61.22l2 3.46c.13.22.07.49-.12.64L19.43 11l.07 1-.07 1 2.11 1.63c.19.15.25.42.12.64l-2 3.46c-.12.22-.39.31-.61.22l-2.49-1c-.52.39-1.06.73-1.69.98l-.37 2.65c-.04.24-.25.42-.5.42h-4m1.25-18l-.37 2.61c-1.2.25-2.26.89-3.03 1.78L5.44 7.35l-.75 1.3L6.8 10.2a5.55 5.55 0 000 3.6l-2.12 1.56.75 1.3 2.43-1.04c.77.88 1.82 1.52 3.01 1.76l.37 2.62h1.52l.37-2.61c1.19-.25 2.24-.89 3.01-1.77l2.43 1.04.75-1.3-2.12-1.55c.4-1.17.4-2.44 0-3.61l2.11-1.55-.75-1.3-2.41 1.04a5.42 5.42 0 00-3.03-1.77L12.75 4h-1.5z"/></symbol><symbol id="icon-trashcan" viewBox="0 0 24 24"><path d="M9 3v1H4v2h1v13a2 2 0 002 2h10a2 2 0 002-2V6h1V4h-5V3H9M7 6h10v13H7V6m2 2v9h2V8H9m4 0v9h2V8h-2z"/></symbol><symbol id="icon-tray-down" viewBox="0 0 24 24"><path d="M2 12h2v5h16v-5h2v5c0 1.11-.89 2-2 2H4a2 2 0 01-2-2v-5m10 3l5.55-5.46-1.42-1.41L13 11.25V2h-2v9.25L7.88 8.13 6.46 9.55 12 15z"/></symbol><symbol id="icon-tray-up" viewBox="0 0 24 24"><path d="M2 12h2v5h16v-5h2v5c0 1.11-.89 2-2 2H4a2 2 0 01-2-2v-5M12 2L6.46 7.46l1.42 1.42L11 5.75V15h2V5.75l3.13 3.13 1.42-1.43L12 2z"/></symbol></svg>